<?xml version="1.0"?>
<svg xmlns="http://www.w3.org/2000/svg" viewBox="0 0 512 512" width="512" height="512"><g id="Filled_outline" data-name="Filled outline"><path d="M488,292.88c0-25.52-16.28-47.14-38.77-54.59A58.151,58.152,0,0,0,456,210.93c0-31.69-25.07-57.37-56-57.37a54.227,54.227,0,0,0-8.01.6c0-.2.01-.4.01-.6a58.348,58.348,0,0,0-5.05-23.83C378.12,109.95,358.63,96.2,336,96.2a54.987,54.987,0,0,0-36.12,13.54,55.154,55.154,0,0,0-87.76,0A54.987,54.987,0,0,0,176,96.2c-30.93,0-56,25.68-56,57.36,0,.2.01.4.01.6a54.227,54.227,0,0,0-8.01-.6c-30.93,0-56,25.68-56,57.37a58.151,58.151,0,0,0,6.77,27.36C40.28,245.74,24,267.36,24,292.88c0,29.75,22.11,54.21,50.41,57.08-.22.73-.42,1.46-.6,2.2A58.477,58.477,0,0,0,72,366.63C72,398.32,97.07,424,128,424a55.423,55.423,0,0,0,44-21.9,55.1,55.1,0,0,0,84,4.67,55.1,55.1,0,0,0,84-4.67A55.423,55.423,0,0,0,384,424c30.93,0,56-25.68,56-57.37a58.727,58.727,0,0,0-2.41-16.67C465.89,347.09,488,322.63,488,292.88Z" style="fill:#f59898"/><path d="M437.59,349.96A58.727,58.727,0,0,1,440,366.63c0,31.69-25.07,57.37-56,57.37a55.423,55.423,0,0,1-44-21.9,55.1,55.1,0,0,1-84,4.67,55.1,55.1,0,0,1-84-4.67A55.423,55.423,0,0,1,128,424c-30.93,0-56-25.68-56-57.37a58.477,58.477,0,0,1,1.81-14.47c125.92-23.23,246.21-87.2,313.14-222.43A58.348,58.348,0,0,1,392,153.56c0,.2-.01.4-.01.6a54.227,54.227,0,0,1,8.01-.6c30.93,0,56,25.68,56,57.37a58.151,58.151,0,0,1-6.77,27.36c22.49,7.45,38.77,29.07,38.77,54.59C488,322.63,465.89,347.09,437.59,349.96Z" style="fill:#ed9191"/><path d="M459.88,234.025a66.87,66.87,0,0,0,4.12-23.1c0-36.043-28.71-65.366-64-65.366l-.477,0C395.648,113.28,368.639,88.2,336,88.2a63.083,63.083,0,0,0-35.03,10.671,63.029,63.029,0,0,0-89.94,0A63.083,63.083,0,0,0,176,88.2c-32.639,0-59.648,25.085-63.523,57.368l-.477,0c-35.29,0-64,29.323-64,65.366a66.87,66.87,0,0,0,4.12,23.1A65.307,65.307,0,0,0,16,292.878c0,30.651,20.431,56.53,48.787,63.516A66.943,66.943,0,0,0,64,366.634C64,402.677,92.71,432,128,432a62.855,62.855,0,0,0,44-17.9,62.994,62.994,0,0,0,84,3.565,62.994,62.994,0,0,0,84-3.565A62.855,62.855,0,0,0,384,432c35.29,0,64-29.323,64-65.366a66.943,66.943,0,0,0-.787-10.24C475.569,349.408,496,323.529,496,292.878A65.307,65.307,0,0,0,459.88,234.025ZM436.847,341.991a47,47,0,0,1-38.37-13.783L387.141,339.5a62.945,62.945,0,0,0,44.153,18.727,50.777,50.777,0,0,1,.706,8.407C432,393.854,410.468,416,384,416a47.292,47.292,0,0,1-37.658-18.78,8,8,0,0,0-12.684,0,47.1,47.1,0,0,1-71.876,4.017,8,8,0,0,0-11.564,0,47.1,47.1,0,0,1-71.876-4.017,7.972,7.972,0,0,0-2.205-1.959l.513-.349a50.435,50.435,0,0,1,5.826-63.608l-11.334-11.292a66.436,66.436,0,0,0-9.242,81.55A47.035,47.035,0,0,1,128,416c-26.468,0-48-22.146-48-49.366a50.706,50.706,0,0,1,2.082-14.405A8,8,0,0,0,75.219,342C50.58,339.5,32,318.38,32,292.878c0-21.518,13.376-40.4,33.284-46.992a8,8,0,0,0,4.553-11.346A50.528,50.528,0,0,1,64,210.927c0-27.22,21.532-49.366,48-49.366a47.3,47.3,0,0,1,6.852.509c.042.007.085.006.127.012a47.222,47.222,0,0,1,27.165,14.144,65.34,65.34,0,0,0-17.971,33.047l15.654,3.307a49.406,49.406,0,0,1,14.3-25.7,46.933,46.933,0,0,1,34.846-13.082l.767-15.981a62.434,62.434,0,0,0-34.877,8.595,63.313,63.313,0,0,0-30.514-18.694C131.171,123.241,151.457,104.2,176,104.2a47.228,47.228,0,0,1,30.887,11.594,8,8,0,0,0,11.561-1.148,47.051,47.051,0,0,1,70.39-5.241A66.019,66.019,0,0,0,272,153.561h16a49.875,49.875,0,0,1,16.984-37.672c.042-.035.088-.065.129-.1A47.228,47.228,0,0,1,336,104.2c24.538,0,44.82,19.038,47.647,43.538a64.076,64.076,0,0,0-29.428,17.517l11.562,11.059a47.716,47.716,0,0,1,27.227-14.226c.047-.006.094-.006.14-.013a47.3,47.3,0,0,1,6.852-.509c26.468,0,48,22.146,48,49.366a50.528,50.528,0,0,1-5.837,23.613,8,8,0,0,0,4.553,11.346C466.624,252.476,480,271.36,480,292.878,480,318.357,461.453,339.458,436.847,341.991Z"/><path d="M336.007,232.115a50.592,50.592,0,0,0-16.216,3.42,52.335,52.335,0,0,0-24.7-40.522l-8.4,13.615A36.6,36.6,0,0,1,304,240.065c0,20.191-15.95,36.618-35.556,36.618a34.655,34.655,0,0,1-10.111-1.5l-4.666,15.305a50.652,50.652,0,0,0,14.777,2.195c23.487,0,43.341-16.118,49.539-38.081a34.71,34.71,0,0,1,44.478,3.292l11.078-11.545A50.571,50.571,0,0,0,336.007,232.115Z"/><path d="M159.591,268.192a48.383,48.383,0,0,1-26-27.354l-14.936,5.739A65.1,65.1,0,0,0,135.3,271.214a35.612,35.612,0,0,1-8.486,18.429c-7.277,8.164-18.045,12.227-30.312,11.456l-1.012,15.967q2.025.129,4.01.128c15.642,0,29.468-5.922,39.258-16.905a50.508,50.508,0,0,0,10.68-19.223c1.24.636,2.5,1.248,3.786,1.807a62.369,62.369,0,0,0,38.259,3.782L188.1,271.019A46.494,46.494,0,0,1,159.591,268.192Z"/><path d="M311.218,325.251c-9.729,18.956-32.157,28.971-53.324,23.814l-3.788,15.546a65.108,65.108,0,0,0,15.423,1.862,62.587,62.587,0,0,0,55.923-33.917l1.665-3.245-14.234-7.305Z"/></g></svg>
